<?xml version="1.0" encoding="iso-8859-1"?>
<!-- Generator: Adobe Illustrator 16.0.0, SVG Export Plug-In . SVG Version: 6.00 Build 0)  -->
<!DOCTYPE svg PUBLIC "-//W3C//DTD SVG 1.1//EN" "http://www.w3.org/Graphics/SVG/1.1/DTD/svg11.dtd">
<svg version="1.1" id="Capa_1" xmlns="http://www.w3.org/2000/svg" xmlns:xlink="http://www.w3.org/1999/xlink" x="0px" y="0px"
	 width="32.15px" height="32.15px" viewBox="0 0 32.15 32.15" style="enable-background:new 0 0 32.15 32.15;" xml:space="preserve"
	>
<g>
	<path d="M31.562,5.349c-0.779-0.781-2.047-0.781-2.826,0L27.5,6.585v-2.76c0-0.829-0.671-1.5-1.5-1.5H1.5
		c-0.829,0-1.5,0.671-1.5,1.5v24.5c0,0.829,0.671,1.5,1.5,1.5H26c0.829,0,1.5-0.671,1.5-1.5V12.242l4.062-4.064
		C32.346,7.396,32.346,6.13,31.562,5.349z M24.5,26.825H3v-21.5h21.5v4.261l-9.614,9.615l-5.91-5.413
		c-0.816-0.746-2.08-0.69-2.826,0.124c-0.746,0.815-0.69,2.08,0.124,2.826l7.321,6.706c0.383,0.352,0.867,0.525,1.351,0.525
		c0.513,0,1.025-0.196,1.414-0.586l8.14-8.142V26.825L24.5,26.825z"/>
</g>
<g>
</g>
<g>
</g>
<g>
</g>
<g>
</g>
<g>
</g>
<g>
</g>
<g>
</g>
<g>
</g>
<g>
</g>
<g>
</g>
<g>
</g>
<g>
</g>
<g>
</g>
<g>
</g>
<g>
</g>
</svg>
